# This file uses meters as units for non-parametric coordinates.

mtllib Model_Propeller.mtl
g default
v 0.000000 4.177895 9.259247
v 0.000000 95.918716 9.259247
v -24.246033 95.918716 -29.629639
v 24.245972 95.918716 -29.629639
v -24.246033 4.177895 -29.629639
v 24.245972 4.177895 -29.629639
v -0.094360 59.938629 49.600372
v 60.130371 61.279648 -47.000183
v -60.225342 60.585770 -47.400452
v -0.094360 34.278526 49.600372
v 60.130371 35.481541 -47.000183
v -60.225342 34.889767 -47.400421
v -164.261414 18.365360 44.400787
v -129.624268 18.365349 99.956329
v -129.624268 27.276146 99.956329
v -164.261414 27.276148 44.400787
v 128.304077 27.928757 105.559906
v 162.941162 27.902636 50.004303
v 162.941284 35.738911 50.004303
v 128.304077 35.712791 105.559906
v 34.632202 44.716000 -163.562469
v -34.642212 44.689240 -163.562469
v 34.632202 36.542027 -163.562469
v -34.642212 36.568825 -163.562469
v -161.414001 24.699135 81.200897
v -167.731079 20.391588 36.358185
v 38.966797 18.745901 -37.500000
v 49.567017 30.900145 12.500702
v 0.000000 18.800323 25.000000
v -0.000854 32.261620 -68.251129
v -38.966797 18.800348 -37.500000
v -49.779236 29.337498 11.600128
v -82.216553 25.641113 83.900543
v -128.976685 25.641138 8.900513
v -0.261353 41.836555 63.939789
v -82.216553 39.724655 83.900543
v -128.976685 39.724663 8.900513
v -73.517334 43.120956 -54.690308
v 128.128052 31.909464 12.502777
v 81.367798 31.968235 87.502777
v 73.185669 44.433258 -53.873230
v 128.128052 45.027763 12.502777
v 81.367798 44.968994 87.502777
v 46.756958 50.853439 -123.004456
v -46.763428 50.793217 -123.004456
v 46.756958 37.408661 -123.004456
v -46.763428 37.468937 -123.004456
v 23.380127 95.918747 -4.166656
v 0.000000 95.918747 -41.666656
v -23.380127 95.918747 -4.166656
v 38.966797 81.688828 -37.500000
v -0.000854 65.347336 -68.251129
v -38.966797 81.634399 -37.500000
v 0.000000 4.177856 -41.666656
v 23.380127 4.177856 -4.166656
v -23.380127 4.177860 -4.166656
v 49.567017 63.877560 12.500702
v 0.000000 81.634399 25.000000
v -49.779236 62.547379 11.600128
v 159.928833 25.060787 87.504852
v 166.245850 29.577944 42.077667
v 159.928833 33.927277 87.504852
v 123.820679 29.577944 110.124664
v -0.005615 44.107395 -177.757782
v 42.351196 38.568542 -164.569550
v -0.005615 34.699223 -177.757782
v -42.499146 38.568562 -164.569550
v -161.414001 14.038879 81.200897
v -125.305969 20.391582 104.405060
v 0.000000 95.918793 -16.666656
v 0.000000 81.667053 -50.000000
v 0.000000 4.177811 -16.666656
v 31.173462 81.667053 0.000000
v -31.173462 81.623520 0.000000
v 161.721680 26.863756 87.442963
v -0.074707 37.138733 -181.128693
v -163.399414 16.365055 80.906342
v 31.173462 18.767664 0.000000
v 0.000000 18.767685 -50.000000
v -31.173462 18.811222 0.000000
v -105.596619 23.293871 46.400543
v -67.592407 32.471161 84.172150
v -105.596619 42.071915 46.400543
v -124.159241 32.471184 -6.557098
v 104.747925 29.762260 50.002777
v 123.251587 37.720512 -3.288818
v 104.747925 47.174965 50.002777
v 66.684692 37.720512 87.440460
v -0.003174 53.054085 -123.004456
v 56.495117 42.857994 -114.892303
v -0.003174 35.208046 -123.004456
v -56.638611 42.858028 -114.892303
vt 0.838600 0.325758
vt 0.902602 0.388144
vt 0.882664 0.386151
vt 0.832839 0.338863
vt 0.841264 0.321680
vt 0.894460 0.372821
vt 0.900461 0.513361
vt 0.878883 0.485901
vt 0.752858 0.337735
vt 0.766739 0.347381
vt 0.895552 0.656697
vt 0.853874 0.665260
vt 0.937956 0.775729
vt 0.924310 0.801538
vt 0.924073 0.640221
vt 0.960942 0.789408
vt 0.971605 0.873394
vt 0.953222 0.878629
vt 0.384696 0.827454
vt 0.333922 0.755522
vt 0.349693 0.750139
vt 0.387242 0.806307
vt 0.370394 0.817007
vt 0.328395 0.757557
vt 0.353251 0.670825
vt 0.365381 0.683144
vt 0.484200 0.816512
vt 0.505928 0.843154
vt 0.663293 0.820873
vt 0.646031 0.861143
vt 0.781787 0.917033
vt 0.753558 0.924972
vt 0.851290 0.961326
vt 0.842170 0.978320
vt 0.623775 0.885422
vt 0.762457 0.950378
vt 0.691265 0.660286
vt 0.734317 0.656254
vt 0.718614 0.693599
vt 0.678853 0.701537
vt 0.668796 0.633090
vt 0.744472 0.629980
vt 0.763053 0.685035
vt 0.743116 0.723686
vt 0.701236 0.735277
vt 0.651063 0.706291
vt 0.630714 0.587517
vt 0.759645 0.582039
vt 0.798854 0.678249
vt 0.760766 0.745424
vt 0.687242 0.768808
vt 0.600183 0.713447
vt 0.715999 0.429950
vt 0.796675 0.460521
vt 0.788001 0.779078
vt 0.473778 0.730453
vt 0.459949 0.645969
vt 0.601981 0.554392
vt 0.686080 0.439786
vt 0.852339 0.858420
vt 0.474188 0.617278
vt 0.917981 0.939347
vt 0.360763 0.665952
vt 0.309929 0.339741
vt 0.289577 0.298744
vt 0.331848 0.298744
vt 0.352983 0.338277
vt 0.296622 0.364631
vt 0.275486 0.298744
vt 0.309929 0.257748
vt 0.352983 0.259212
vt 0.375684 0.298744
vt 0.360028 0.351454
vt 0.279882 0.400576
vt 0.244626 0.298746
vt 0.296622 0.232857
vt 0.360028 0.246035
vt 0.402299 0.298744
vt 0.379642 0.382913
vt 0.152047 0.377814
vt 0.152047 0.298750
vt 0.280558 0.197073
vt 0.381165 0.214934
vt 0.443895 0.298904
vt 0.438485 0.477292
vt 0.375078 0.516824
vt 0.083469 0.357319
vt 0.059467 0.298754
vt 0.152047 0.219685
vt 0.381169 0.082099
vt 0.444575 0.121632
vt 0.501891 0.437760
vt 0.507982 0.161164
vt 0.497327 0.571671
vt 0.435103 0.576485
vt 0.267556 0.423051
vt 0.348941 0.508679
vt 0.165763 0.394512
vt 0.081767 0.370604
vt 0.053768 0.298871
vt 0.083469 0.240187
vt 0.268937 0.174999
vt 0.354468 0.090345
vt 0.444578 0.023236
vt 0.507986 0.028329
vt 0.468141 0.299186
vt 0.502351 0.413033
vt 0.529039 0.517919
vt 0.538514 0.081802
vt 0.507877 0.185991
vt 0.421505 0.582352
vt 0.081767 0.227135
vt 0.165763 0.203220
vt 0.431175 0.017648
vt 0.536561 0.510617
vt 0.496829 0.575028
vt 0.507881 0.025298
vt 0.546232 0.089383
vt 0.927456 0.951200
vn -0.000408 0.865455 0.500987
vn 0.440010 0.853787 0.278278
vn 0.000000 1.000000 0.000000
vn -0.440972 0.853234 0.278453
vn 0.414225 0.870492 -0.265822
vn -0.000326 0.847975 -0.530036
vn -0.415286 0.869947 -0.265951
vn -0.002271 0.675099 -0.737723
vn -0.559448 0.759587 -0.331732
vn 0.547813 0.765715 -0.337020
vn 0.368041 0.911609 -0.183072
vn -0.002862 0.954082 -0.299531
vn -0.387026 0.906320 -0.169691
vn -0.422356 -0.865154 -0.270416
vn -0.000324 -0.842598 -0.538543
vn -0.000000 -1.000000 0.000000
vn -0.448121 -0.848026 0.282911
vn 0.421311 -0.865701 -0.270294
vn 0.447174 -0.848582 0.282743
vn -0.000406 -0.860532 0.509396
vn -0.026993 0.899631 0.435816
vn 0.253403 0.953105 0.165459
vn 0.587397 0.721100 0.367396
vn -0.012936 0.761594 0.647926
vn -0.298123 0.935688 0.188706
vn -0.600292 0.706763 0.374347
vn -0.083274 -0.994641 0.061268
vn -0.027477 -0.999579 -0.009365
vn 0.881741 0.002658 0.471727
vn -0.199945 -0.034762 0.979190
vn 0.017882 -0.995294 -0.095241
vn 0.823839 -0.029489 -0.566057
vn 0.350819 0.936422 0.006301
vn 0.283881 0.940687 0.185793
vn 0.144694 0.936673 0.318917
vn -0.175083 0.944849 -0.276780
vn -0.000058 0.950377 -0.311100
vn -0.002636 0.029011 -0.999576
vn -0.869257 0.007156 -0.494308
vn 0.175451 0.944571 -0.277494
vn 0.868805 0.007186 -0.495103
vn 0.102516 -0.993908 -0.040460
vn -0.000153 -0.998697 -0.051041
vn -0.102412 -0.993956 -0.039530
vn 0.028688 -0.989853 -0.139169
vn 0.076376 -0.996274 -0.040059
vn -0.884057 -0.012767 0.467205
vn -0.816092 -0.042863 -0.576330
vn 0.135071 -0.989947 0.041959
vn 0.146601 -0.049325 0.987965
vn -0.197414 0.906849 0.372360
vn -0.347630 0.910225 0.225044
vn -0.413595 0.910228 0.020598
vn 0.522717 -0.793626 0.311328
vn 0.011469 -0.844454 0.535505
vn 0.480160 -0.815431 -0.323294
vn 0.197389 -0.969624 -0.144453
vn 0.066123 -0.997215 0.034500
vn 0.026767 -0.980709 0.193632
vn -0.155871 -0.974150 -0.163510
vn 0.002932 -0.986702 -0.162514
vn 0.003638 -0.724477 -0.689289
vn -0.459174 -0.825584 -0.327980
vn -0.503366 -0.808008 0.306178
vn -0.007888 -0.999968 0.001199
vn 0.091519 -0.994056 -0.058972
vn 0.021605 -0.987556 -0.155778
vn 0.141236 -0.988806 0.048123
vn -0.016777 0.010423 0.999805
vn 0.311860 -0.018016 0.949957
vn -0.113246 0.929202 0.351795
vn -0.222115 0.964888 0.140200
vn -0.360270 0.931424 -0.051517
vn -0.843650 0.014402 -0.536701
vn -0.691715 -0.016257 -0.721987
vn -0.031785 -0.999237 -0.022703
vn -0.083314 -0.993540 0.077046
vn 0.038117 -0.992502 -0.116133
vn 0.856096 0.009507 -0.516729
vn 0.716399 -0.012593 -0.697577
vn 0.313100 0.947510 -0.064758
vn 0.171229 0.978750 0.112826
vn 0.060901 0.949061 0.309150
vn -0.346240 -0.008510 0.938107
vn -0.001894 0.984944 -0.172861
vn -0.221364 0.955598 -0.194500
vn 0.218350 0.955667 -0.197546
vn 0.963341 -0.006350 -0.268205
vn 0.126636 -0.991165 -0.039448
vn 0.001221 -0.999650 -0.026409
vn -0.121386 -0.991697 -0.042456
vn -0.961881 -0.000618 -0.273470
s 1
g pCube232
usemtl initialShadingGroup
f 2/37/1 48/38/2 70/39/3 50/40/4
f 4/43/5 49/44/6 70/39/3 48/38/2
f 3/45/7 50/40/4 70/39/3 49/44/6
f 3/45/7 49/44/6 71/50/8 53/51/9
f 49/44/6 4/43/5 51/49/10 71/50/8
f 71/50/8 51/49/10 8/12/11 52/55/12
f 53/51/9 71/50/8 52/55/12 9/29/13
f 5/64/14 54/65/15 72/66/16 56/67/17
f 6/70/18 55/71/19 72/66/16 54/65/15
f 1/72/20 56/67/17 72/66/16 55/71/19
f 7/47/21 57/48/22 73/42/23 58/41/24
f 57/48/22 8/12/11 51/49/10 73/42/23
f 73/42/23 51/49/10 4/43/5 48/38/2
f 58/41/24 73/42/23 48/38/2 2/37/1
f 9/29/13 59/52/25 74/46/26 53/51/9
f 59/52/25 7/47/21 58/41/24 74/46/26
f 74/46/26 58/41/24 2/37/1 50/40/4
f 53/51/9 74/46/26 50/40/4 3/45/7
f 17/109/27 60/105/28 75/117/29 63/118/30
f 60/5/28 18/6/31 61/2/32 75/1/29
f 75/1/29 61/2/32 19/3/33 62/4/34
f 63/9/30 75/1/29 62/4/34 20/10/35
f 22/33/36 64/62/37 76/119/38 67/34/39
f 64/62/37 21/18/40 65/17/41 76/119/38
f 76/100/38 65/112/41 23/101/42 66/88/43
f 67/99/39 76/100/38 66/88/43 24/87/44
f 13/23/45 68/24/46 77/20/47 26/19/48
f 68/94/46 14/108/49 69/115/50 77/116/47
f 77/20/47 69/25/50 15/26/51 25/21/52
f 26/19/48 77/20/47 25/21/52 16/22/53
f 1/72/20 55/71/19 78/77/54 29/78/55
f 55/71/19 6/70/18 27/76/56 78/77/54
f 78/77/54 27/76/56 11/82/57 28/83/58
f 29/78/55 78/77/54 28/83/58 10/84/59
f 12/74/60 30/75/61 79/69/62 31/68/63
f 30/75/61 11/82/57 27/76/56 79/69/62
f 79/69/62 27/76/56 6/70/18 54/65/15
f 31/68/63 79/69/62 54/65/15 5/64/14
f 5/64/14 56/67/17 80/73/64 31/68/63
f 56/67/17 1/72/20 29/78/55 80/73/64
f 80/73/64 29/78/55 10/84/59 32/79/65
f 31/68/63 80/73/64 32/79/65 12/74/60
f 12/74/60 32/79/65 81/85/66 34/86/67
f 32/79/65 10/84/59 33/92/68 81/85/66
f 81/85/66 33/92/68 14/108/49 68/94/46
f 34/86/67 81/85/66 68/94/46 13/95/45
f 10/84/59 35/106/69 82/107/70 33/92/68
f 35/58/69 7/47/21 36/57/71 82/61/70
f 82/61/70 36/57/71 15/26/51 69/63/50
f 33/92/68 82/107/70 69/115/50 14/108/49
f 7/47/21 59/52/25 83/56/72 36/57/71
f 59/52/25 9/29/13 37/27/73 83/56/72
f 83/56/72 37/27/73 16/22/53 25/21/52
f 36/57/71 83/56/72 25/21/52 15/26/51
f 9/29/13 38/30/74 84/28/75 37/27/73
f 38/96/74 12/74/60 34/86/67 84/97/75
f 84/97/75 34/86/67 13/95/45 26/111/48
f 37/27/73 84/28/75 26/19/48 16/22/53
f 10/84/59 28/83/58 85/91/76 40/93/77
f 28/83/58 11/82/57 39/90/78 85/91/76
f 85/91/76 39/90/78 18/104/31 60/105/28
f 40/93/77 85/91/76 60/105/28 17/109/27
f 11/82/57 41/102/79 86/103/80 39/90/78
f 41/11/79 8/12/11 42/8/81 86/7/80
f 86/7/80 42/8/81 19/3/33 61/2/32
f 39/90/78 86/103/80 61/114/32 18/104/31
f 8/12/11 57/48/22 87/54/82 42/8/81
f 57/48/22 7/47/21 43/53/83 87/54/82
f 87/54/82 43/53/83 20/10/35 62/4/34
f 42/8/81 87/54/82 62/4/34 19/3/33
f 7/47/21 35/58/69 88/59/84 43/53/83
f 35/106/69 10/84/59 40/93/77 88/110/84
f 88/110/84 40/93/77 17/109/27 63/118/30
f 43/53/83 88/59/84 63/9/30 20/10/35
f 9/29/13 52/55/12 89/60/85 45/31/86
f 52/55/12 8/12/11 44/14/87 89/60/85
f 89/60/85 44/14/87 21/18/40 64/62/37
f 45/31/86 89/60/85 64/62/37 22/33/36
f 8/12/11 41/11/79 90/13/88 44/14/87
f 41/11/79 11/15/57 46/16/89 90/13/88
f 90/113/88 46/89/89 23/101/42 65/112/41
f 44/14/87 90/13/88 65/17/41 21/18/40
f 11/82/57 30/75/61 91/81/90 46/89/89
f 30/75/61 12/74/60 47/80/91 91/81/90
f 91/81/90 47/80/91 24/87/44 66/88/43
f 46/89/89 91/81/90 66/88/43 23/101/42
f 12/35/60 38/30/74 92/32/92 47/36/91
f 38/30/74 9/29/13 45/31/86 92/32/92
f 92/32/92 45/31/86 22/33/36 67/34/39
f 47/80/91 92/98/92 67/99/39 24/87/44
